<?xml version="1.0" standalone="no"?>
<!DOCTYPE svg PUBLIC "-//W3C//DTD SVG 20010904//EN"
 "http://www.w3.org/TR/2001/REC-SVG-20010904/DTD/svg10.dtd">
<svg version="1.0" xmlns="http://www.w3.org/2000/svg"
 width="50.000000pt" height="50.000000pt" viewBox="0 0 50.000000 50.000000"
 preserveAspectRatio="xMidYMid meet">

<g transform="translate(0.000000,50.000000) scale(0.100000,-0.100000)"
fill="#000000" stroke="none">
<path d="M56 444 c-24 -23 -24 -365 0 -388 23 -24 365 -24 388 0 24 23 24 365
0 388 -23 24 -365 24 -388 0z m382 -188 c1 -99 -1 -183 -6 -188 -5 -5 -16 2
-26 17 -10 15 -38 36 -62 46 -47 21 -52 34 -29 79 8 15 16 54 17 85 2 53 0 59
-27 81 -41 33 -102 28 -127 -10 -13 -19 -8 -130 7 -156 24 -42 18 -58 -29 -79
-24 -10 -52 -31 -61 -45 -10 -14 -21 -23 -26 -20 -10 6 -12 357 -2 368 4 3 88
5 187 4 l181 -3 3 -179z m-155 112 c15 -7 28 -20 28 -28 4 -38 -3 -88 -18
-122 -22 -52 -12 -81 36 -103 22 -10 48 -26 57 -36 17 -18 13 -19 -136 -19
-149 0 -153 1 -136 19 9 10 35 26 57 36 48 22 59 53 35 101 -22 48 -22 140 2
153 23 14 43 13 75 -1z"/>
</g>
</svg>
